<svg width="55" height="55" fill="none" xmlns="http://www.w3.org/2000/svg"><path d="M49.538 25.41H4.468v2.18h45.07v-2.18z" fill="#232322"/><path d="M28.104 4.467h-2.18v45.09h2.18V4.468z" fill="#975295"/><path d="M38.245 50.65H15.802c-6.85 0-12.424-5.575-12.424-12.425V15.782c0-6.85 5.574-12.425 12.424-12.425h22.443c6.85 0 12.425 5.575 12.425 12.425v22.443c0 6.85-5.575 12.424-12.425 12.424zM15.802 5.557c-5.636 0-10.244 4.588-10.244 10.245v22.442c0 5.637 4.587 10.244 10.244 10.244h22.443c5.636 0 10.244-4.587 10.244-10.244V15.803c0-5.637-4.587-10.245-10.244-10.245H15.802z" fill="#232322"/><path d="M27.013 52.933a3.374 3.374 0 100-6.747 3.374 3.374 0 000 6.747z" fill="#151514"/><path d="M27.013 54.022h-.165a4.439 4.439 0 01-3.106-1.42c-.823-.863-1.234-2.015-1.193-3.208a4.439 4.439 0 011.42-3.106c.863-.823 1.995-1.234 3.209-1.193a4.438 4.438 0 013.106 1.419 4.485 4.485 0 011.193 3.209 4.454 4.454 0 01-4.464 4.3zm0-6.747c-.576 0-1.131.206-1.563.617-.453.412-.7.988-.72 1.584-.041 1.255.946 2.325 2.2 2.366 1.256.062 2.325-.947 2.366-2.201a2.23 2.23 0 00-.617-1.646 2.236 2.236 0 00-1.584-.72h-.082z" fill="#975295"/><path d="M27.013 29.873a3.374 3.374 0 100-6.747 3.374 3.374 0 000 6.747z" fill="#151514"/><path d="M27.013 30.963h-.164a4.44 4.44 0 01-3.107-1.42 4.486 4.486 0 01-1.193-3.209 4.44 4.44 0 011.42-3.106 4.287 4.287 0 013.209-1.193 4.439 4.439 0 013.106 1.42 4.486 4.486 0 011.193 3.209 4.454 4.454 0 01-4.464 4.299zm0-6.747a2.24 2.24 0 00-1.563.617 2.23 2.23 0 00-.72 1.584c-.041 1.254.946 2.324 2.2 2.365 1.256.041 2.325-.946 2.367-2.2a2.229 2.229 0 00-.618-1.646 2.236 2.236 0 00-1.584-.72h-.082z" fill="#975295"/><path d="M49.58 42.111a3.374 3.374 0 100-6.747 3.374 3.374 0 000 6.747z" fill="#151514"/><path d="M49.58 43.2h-.165a4.439 4.439 0 01-3.106-1.42 4.519 4.519 0 01-1.194-3.208 4.45 4.45 0 014.629-4.3 4.45 4.45 0 014.3 4.629 4.439 4.439 0 01-1.42 3.106 4.435 4.435 0 01-3.045 1.193zm0-6.747a2.289 2.289 0 00-2.284 2.201c-.02.617.185 1.193.617 1.646.412.452.988.7 1.584.72a2.178 2.178 0 001.646-.617c.452-.412.7-.988.72-1.584.04-1.255-.947-2.325-2.201-2.366h-.083z" fill="#232322"/><path d="M4.468 42.111a3.374 3.374 0 100-6.747 3.374 3.374 0 000 6.747z" fill="#151514"/><path d="M4.468 43.2h-.165a4.439 4.439 0 01-3.106-1.42 4.431 4.431 0 01-1.193-3.208 4.45 4.45 0 014.628-4.3 4.439 4.439 0 013.107 1.42c.822.864 1.234 2.016 1.193 3.209a4.439 4.439 0 01-1.42 3.106A4.398 4.398 0 014.468 43.2zm-2.283-4.546a2.228 2.228 0 00.617 1.646c.411.452.987.7 1.584.72a2.26 2.26 0 001.645-.617c.453-.412.7-.988.72-1.584.041-1.255-.946-2.325-2.2-2.366-1.256-.041-2.325.946-2.366 2.201z" fill="#232322"/><path fill-rule="evenodd" clip-rule="evenodd" d="M15.802 3.356c-6.85 0-12.425 5.575-12.425 12.425 0 .157.01.312.031.465H5.65a1.164 1.164 0 01-.091-.444c0-5.657 4.608-10.244 10.244-10.244h22.443c5.657 0 10.244 4.607 10.244 10.244 0 .151-.01.299-.03.444h2.19a5.49 5.49 0 00.02-.465c0-6.85-5.574-12.425-12.424-12.425H15.802z" fill="#975295"/><path d="M49.489 18.983a3.374 3.374 0 100-6.747 3.374 3.374 0 000 6.747z" fill="#151514"/><path d="M49.489 20.073h-.165a4.439 4.439 0 01-3.106-1.42 4.431 4.431 0 01-1.193-3.208 4.439 4.439 0 011.42-3.106 4.286 4.286 0 013.208-1.194 4.45 4.45 0 014.3 4.629 4.44 4.44 0 01-1.42 3.106 4.435 4.435 0 01-3.044 1.193zm-.02-6.747c-.577 0-1.132.206-1.564.617-.453.412-.7.987-.72 1.584-.02.617.185 1.193.617 1.646a2.24 2.24 0 001.584.72 2.26 2.26 0 001.646-.617c.452-.412.699-.988.72-1.584.04-1.255-.947-2.325-2.201-2.366h-.083z" fill="#975295"/><path d="M4.467 18.983a3.374 3.374 0 100-6.747 3.374 3.374 0 000 6.747z" fill="#151514"/><path d="M4.467 20.073h-.165a4.439 4.439 0 01-3.106-1.42 4.431 4.431 0 01-1.193-3.208 4.439 4.439 0 011.42-3.106 4.286 4.286 0 013.208-1.194 4.45 4.45 0 014.3 4.629 4.439 4.439 0 01-1.42 3.106 4.435 4.435 0 01-3.044 1.193zm-.02-6.747c-.577 0-1.132.206-1.564.617-.453.412-.7.987-.72 1.584-.02.617.185 1.193.617 1.646.411.452.987.699 1.584.72a2.26 2.26 0 001.645-.617c.453-.412.7-.988.72-1.584.042-1.255-.946-2.325-2.2-2.366h-.083z" fill="#975295"/><path d="M27.21 7.845a3.374 3.374 0 100-6.747 3.374 3.374 0 000 6.747z" fill="#151514"/><path d="M27.21 8.933h-.165a4.439 4.439 0 01-3.106-1.419 4.43 4.43 0 01-1.193-3.209 4.439 4.439 0 011.42-3.106A4.287 4.287 0 0127.373.006a4.45 4.45 0 014.3 4.628 4.439 4.439 0 01-1.42 3.106 4.435 4.435 0 01-3.044 1.193zm-.02-6.747c-.577 0-1.132.206-1.564.617-.453.412-.7.988-.72 1.584-.02.617.185 1.193.617 1.646.411.453.987.7 1.584.72a2.26 2.26 0 001.646-.617c.452-.412.699-.988.72-1.584.04-1.255-.947-2.325-2.201-2.366h-.083z" fill="#975295"/></svg>