<svg width="54" height="63" fill="none" xmlns="http://www.w3.org/2000/svg"><path d="M28.093 3.394h-2.185v54.951h2.184V3.394z" fill="#232321"/><path d="M26.51 2.439L3.995 13.849l.988 1.95L27.497 4.387l-.988-1.949zM4.976 46.43l-.953 1.967 22.504 10.911.953-1.965L4.976 46.43zM28.513 2.42l-.989 1.95 22.511 11.415.988-1.949-22.51-11.415zm21.499 44.007L27.51 57.342l.954 1.965 22.501-10.914-.953-1.966z" fill="#232321"/><path d="M27.01 61.737a3.392 3.392 0 100-6.783 3.392 3.392 0 000 6.783z" fill="#151514"/><path d="M27.01 62.84h-.166a4.36 4.36 0 01-3.121-1.436 4.488 4.488 0 01-1.207-3.225 4.36 4.36 0 011.436-3.12c.873-.812 2.018-1.228 3.225-1.208a4.36 4.36 0 013.12 1.436 4.488 4.488 0 011.208 3.225c-.104 2.414-2.102 4.328-4.495 4.328zm0-6.783a2.22 2.22 0 00-1.56.624 2.224 2.224 0 00-.729 1.602c-.02.604.188 1.207.604 1.644.416.458.978.707 1.602.728a2.271 2.271 0 002.372-2.205 2.274 2.274 0 00-.603-1.644 2.224 2.224 0 00-1.603-.728c-.02-.021-.062-.021-.083-.021z" fill="#232321"/><path d="M27.01 7.888a3.392 3.392 0 100-6.784 3.392 3.392 0 000 6.784z" fill="#151514"/><path d="M27.01 8.991h-.166a4.36 4.36 0 01-3.121-1.435 4.488 4.488 0 01-1.207-3.225 4.36 4.36 0 011.436-3.121A4.488 4.488 0 0127.177.003a4.36 4.36 0 013.12 1.435 4.488 4.488 0 011.208 3.226 4.36 4.36 0 01-1.436 3.12 4.494 4.494 0 01-3.059 1.207zm0-6.783a2.22 2.22 0 00-1.56.624 2.224 2.224 0 00-.729 1.603c-.02.603.188 1.206.604 1.643.416.458.978.708 1.602.729.624.02 1.207-.188 1.644-.604.457-.416.707-.978.728-1.602a2.273 2.273 0 00-.603-1.644 2.224 2.224 0 00-1.603-.728c-.02-.02-.062-.02-.083-.02z" fill="#232321"/><path d="M49.503 29.778H4.497v2.185h45.006v-2.185z" fill="#65A85A"/><path d="M50.585 14.816H48.4v32.127h2.185V14.816zm-45.006 0H3.394v32.127h2.185V14.816z" fill="#65A85A"/><path d="M4.498 18.209a3.392 3.392 0 100-6.783 3.392 3.392 0 000 6.783z" fill="#151514"/><path d="M4.497 19.312h-.166a4.36 4.36 0 01-3.121-1.436c-.812-.895-1.25-2.018-1.207-3.225a4.36 4.36 0 011.435-3.121c.874-.812 2.019-1.228 3.226-1.207 2.476.083 4.41 2.185 4.327 4.64a4.36 4.36 0 01-1.435 3.121c-.853.79-1.935 1.228-3.059 1.228zm-.02-6.783a2.22 2.22 0 00-1.561.624 2.224 2.224 0 00-.729 1.602 2.28 2.28 0 00.604 1.644c.416.457.978.707 1.602.728a2.274 2.274 0 001.644-.603c.458-.417.707-.978.728-1.603a2.284 2.284 0 00-2.206-2.372c-.02-.02-.041-.02-.083-.02z" fill="#65A85A"/><path d="M4.498 50.336a3.392 3.392 0 100-6.783 3.392 3.392 0 000 6.783z" fill="#151514"/><path d="M4.497 51.418h-.166a4.36 4.36 0 01-3.121-1.436 4.488 4.488 0 01-1.207-3.225c.083-2.476 2.184-4.39 4.64-4.328 2.476.083 4.41 2.185 4.328 4.64a4.481 4.481 0 01-4.474 4.349zm0-6.783a2.293 2.293 0 00-2.289 2.205c-.02.604.188 1.207.604 1.644.416.458.978.707 1.602.728.624.021 1.207-.187 1.644-.603.457-.416.707-.978.728-1.602a2.284 2.284 0 00-2.206-2.372h-.083z" fill="#65A85A"/><path d="M49.503 18.209a3.392 3.392 0 100-6.783 3.392 3.392 0 000 6.783z" fill="#151514"/><path d="M49.503 19.312h-.166a4.36 4.36 0 01-3.122-1.436 4.488 4.488 0 01-1.206-3.225 4.36 4.36 0 011.435-3.121 4.488 4.488 0 013.225-1.207 4.36 4.36 0 013.122 1.436 4.489 4.489 0 011.206 3.225 4.36 4.36 0 01-1.435 3.12 4.494 4.494 0 01-3.06 1.208zm0-6.783a2.22 2.22 0 00-1.56.624 2.225 2.225 0 00-.729 1.602c-.02.603.187 1.207.604 1.644.416.457.977.707 1.602.728.582.02 1.206-.187 1.643-.603.458-.416.708-.978.729-1.603a2.273 2.273 0 00-.604-1.643 2.224 2.224 0 00-1.602-.729c-.02-.02-.062-.02-.083-.02z" fill="#65A85A"/><path d="M49.503 34.272a3.392 3.392 0 100-6.783 3.392 3.392 0 000 6.783z" fill="#151514"/><path d="M49.503 35.355h-.166a4.36 4.36 0 01-3.122-1.436 4.488 4.488 0 01-1.206-3.225 4.36 4.36 0 011.435-3.121 4.488 4.488 0 013.225-1.207 4.36 4.36 0 013.122 1.436 4.489 4.489 0 011.206 3.225 4.51 4.51 0 01-4.494 4.328zm0-6.763a2.22 2.22 0 00-1.56.625 2.224 2.224 0 00-.729 1.602c-.02.603.187 1.207.604 1.643.416.458.977.708 1.602.729 1.29.062 2.33-.937 2.372-2.206a2.274 2.274 0 00-.604-1.644 2.224 2.224 0 00-1.602-.728c-.02-.02-.062-.02-.083-.02z" fill="#65A85A"/><path d="M27.01 34.272a3.392 3.392 0 100-6.783 3.392 3.392 0 000 6.783z" fill="#151514"/><path d="M27.01 35.355h-.166a4.36 4.36 0 01-3.121-1.436 4.488 4.488 0 01-1.207-3.225 4.36 4.36 0 011.436-3.121 4.488 4.488 0 013.225-1.207 4.36 4.36 0 013.12 1.436 4.488 4.488 0 011.208 3.225 4.51 4.51 0 01-4.495 4.328zm0-6.763a2.22 2.22 0 00-1.56.625 2.224 2.224 0 00-.729 1.602c-.02.603.188 1.207.604 1.643.416.458.978.708 1.602.729 1.29.062 2.33-.937 2.372-2.206a2.274 2.274 0 00-.603-1.644 2.224 2.224 0 00-1.603-.728c-.02-.02-.062-.02-.083-.02z" fill="#65A85A"/><path d="M4.498 34.272a3.392 3.392 0 100-6.783 3.392 3.392 0 000 6.783z" fill="#151514"/><path d="M4.497 35.354h-.166a4.36 4.36 0 01-3.121-1.436 4.488 4.488 0 01-1.207-3.225 4.36 4.36 0 011.435-3.121c.874-.812 2.019-1.228 3.226-1.207a4.487 4.487 0 014.327 4.64c-.104 2.455-2.101 4.349-4.494 4.349zm-.02-6.763a2.22 2.22 0 00-1.561.625 2.224 2.224 0 00-.729 1.602c-.02.603.188 1.207.604 1.643.416.458.978.708 1.602.729a2.27 2.27 0 002.372-2.206 2.284 2.284 0 00-2.206-2.372c-.02-.02-.041-.02-.083-.02z" fill="#65A85A"/><path d="M49.503 50.336a3.392 3.392 0 100-6.783 3.392 3.392 0 000 6.783z" fill="#151514"/><path d="M49.503 51.418h-.166a4.36 4.36 0 01-3.122-1.436 4.488 4.488 0 01-1.206-3.225c.083-2.476 2.184-4.39 4.64-4.328a4.36 4.36 0 013.12 1.436 4.489 4.489 0 011.208 3.225 4.478 4.478 0 01-4.474 4.328zm0-6.783a2.293 2.293 0 00-2.289 2.205c-.02.604.187 1.207.604 1.644.416.458.977.707 1.602.728a2.24 2.24 0 001.643-.603c.458-.416.708-.978.729-1.602a2.274 2.274 0 00-.604-1.644 2.224 2.224 0 00-1.602-.728h-.083z" fill="#65A85A"/></svg>