<svg width="58" height="57" fill="none" xmlns="http://www.w3.org/2000/svg"><path d="M53.163 27.517H4.817v2.35h48.346v-2.35z" fill="#232322"/><path d="M30.165 5.56h-2.351v46.262h2.35V5.56z" fill="#232322"/><path d="M53.163 4.384H4.817v2.35h48.346v-2.35zm0 46.796H4.817v2.35h48.346v-2.35z" fill="#232322"/><path d="M54.36 51.822h-2.351V8.311L29.832 29.534c-.466.444-1.175.444-1.619 0L6.036 8.311v43.511H3.641V5.561c0-.466.288-.887.71-1.087a1.2 1.2 0 011.264.222l23.374 22.377L52.364 4.718a1.119 1.119 0 011.264-.222c.444.178.71.621.71 1.087v46.239h.022z" fill="#4B66AB"/><path d="M4.817 9.197a3.637 3.637 0 100-7.274 3.637 3.637 0 000 7.274z" fill="#151514"/><path d="M4.817 10.373h-.178a4.786 4.786 0 01-3.348-1.53C.404 7.912-.04 6.67.004 5.383.094 2.723 2.355.637 4.994.748a4.797 4.797 0 014.635 4.99A4.786 4.786 0 018.1 9.087c-.887.843-2.04 1.286-3.282 1.286zm0-7.274a2.467 2.467 0 00-2.462 2.373c-.022.665.2 1.286.666 1.774a2.41 2.41 0 001.707.776c.688.023 1.286-.2 1.774-.665A2.45 2.45 0 007.28 5.65c.044-1.352-1.02-2.506-2.373-2.55h-.09z" fill="#4B66AB"/><path d="M4.817 55.458a3.637 3.637 0 100-7.274 3.637 3.637 0 000 7.274z" fill="#151514"/><path d="M4.816 56.633H4.64a4.786 4.786 0 01-3.349-1.53 4.777 4.777 0 01-1.286-3.46c.089-2.66 2.373-4.723 4.99-4.634a4.786 4.786 0 013.349 1.53 4.777 4.777 0 011.286 3.46 4.786 4.786 0 01-1.53 3.348 4.742 4.742 0 01-3.283 1.286zm0-7.274a2.453 2.453 0 00-2.461 2.373c-.045 1.353 1.02 2.506 2.373 2.55.687.045 1.286-.199 1.774-.665a2.41 2.41 0 00.776-1.707 2.436 2.436 0 00-.665-1.774 2.41 2.41 0 00-1.708-.777h-.089z" fill="#4B66AB"/><path d="M53.184 9.197a3.637 3.637 0 100-7.274 3.637 3.637 0 000 7.274z" fill="#151514"/><path d="M53.185 10.373h-.178a4.786 4.786 0 01-3.349-1.53c-.887-.931-1.33-2.173-1.286-3.46.089-2.66 2.373-4.746 4.99-4.635a4.786 4.786 0 013.349 1.53 4.777 4.777 0 011.286 3.46c-.11 2.595-2.24 4.635-4.812 4.635zm0-7.274a2.467 2.467 0 00-2.462 2.373c-.022.665.2 1.286.665 1.774a2.41 2.41 0 001.708.776c1.353.045 2.506-1.02 2.55-2.373.045-1.352-1.02-2.506-2.373-2.55h-.088z" fill="#4B66AB"/><path d="M53.184 32.453a3.637 3.637 0 100-7.274 3.637 3.637 0 000 7.274z" fill="#151514"/><path d="M53.185 33.627h-.178a4.786 4.786 0 01-3.349-1.53c-.887-.932-1.33-2.174-1.286-3.46.089-2.661 2.373-4.746 4.99-4.635a4.786 4.786 0 013.349 1.53 4.777 4.777 0 011.286 3.46c-.11 2.595-2.24 4.635-4.812 4.635zm0-7.274a2.467 2.467 0 00-2.462 2.373c-.022.665.2 1.286.665 1.774a2.41 2.41 0 001.708.776c1.353.045 2.506-1.02 2.55-2.373.045-1.352-1.02-2.506-2.373-2.55h-.088z" fill="#4B66AB"/><path d="M4.816 32.453a3.637 3.637 0 100-7.274 3.637 3.637 0 000 7.274z" fill="#151514"/><path d="M4.815 33.627h-.177a4.786 4.786 0 01-3.349-1.53c-.887-.932-1.33-2.174-1.286-3.46.089-2.661 2.373-4.746 4.99-4.635a4.785 4.785 0 013.349 1.53 4.777 4.777 0 011.286 3.46c-.111 2.595-2.24 4.635-4.813 4.635zm0-7.274a2.467 2.467 0 00-2.461 2.373c-.022.665.2 1.286.665 1.774a2.41 2.41 0 001.708.776c1.353.045 2.506-1.02 2.55-2.373.044-1.352-1.02-2.506-2.373-2.55h-.089z" fill="#4B66AB"/><path d="M28.99 32.329a3.637 3.637 0 100-7.274 3.637 3.637 0 000 7.274z" fill="#151514"/><path d="M29.012 33.505h-.178a4.786 4.786 0 01-3.348-1.53 4.777 4.777 0 01-1.287-3.46 4.812 4.812 0 014.99-4.635 4.797 4.797 0 014.635 4.99 4.785 4.785 0 01-1.53 3.348 4.782 4.782 0 01-3.282 1.287zm-.023-7.274a2.467 2.467 0 00-2.461 2.373c-.022.665.2 1.286.665 1.774a2.41 2.41 0 001.708.776 2.44 2.44 0 001.774-.665 2.41 2.41 0 00.776-1.708c.044-1.353-1.02-2.506-2.373-2.55h-.088z" fill="#4B66AB"/><path d="M53.184 55.458a3.637 3.637 0 100-7.274 3.637 3.637 0 000 7.274z" fill="#151514"/><path d="M53.185 56.634h-.178a4.797 4.797 0 01-4.635-4.99 4.811 4.811 0 014.99-4.635 4.785 4.785 0 013.349 1.53A4.777 4.777 0 0157.997 52c-.11 2.594-2.24 4.635-4.812 4.635zm-.022-7.274c-.621 0-1.22.221-1.686.665a2.41 2.41 0 00-.776 1.708c-.044 1.352 1.02 2.506 2.373 2.55a2.445 2.445 0 002.55-2.373 2.403 2.403 0 00-.665-1.774 2.41 2.41 0 00-1.708-.776h-.088z" fill="#4B66AB"/></svg>