<svg width="55" height="55" fill="none" xmlns="http://www.w3.org/2000/svg"><path d="M48.638 25.904H6.255v2.098h42.383v-2.098z" fill="#232322"/><path d="M27.447 51.646c-13.356 0-24.2-10.863-24.2-24.199 0-13.336 10.863-24.218 24.2-24.218 13.336 0 24.198 10.862 24.198 24.198 0 13.337-10.843 24.22-24.199 24.22zm0-46.32c-12.189 0-22.102 9.933-22.102 22.121 0 12.189 9.913 22.102 22.102 22.102 12.188 0 22.101-9.913 22.101-22.102 0-12.188-9.893-22.121-22.102-22.121z" fill="#232322"/><path d="M27.446 51.646V49.55c12.189 0 22.102-9.913 22.102-22.102 0-12.188-9.893-22.121-22.102-22.121V3.229c13.356 0 24.2 10.862 24.2 24.198 0 13.337-10.844 24.22-24.2 24.22z" fill="#975295"/><path d="M28.495 5.743h-2.097v42.383h2.097V5.743z" fill="#975295"/><path d="M27.446 7.521a3.245 3.245 0 100-6.49 3.245 3.245 0 000 6.49z" fill="#151514"/><path d="M27.466 8.591h-.158a4.27 4.27 0 01-2.988-1.365c-.791-.831-1.187-1.94-1.148-3.087A4.28 4.28 0 0127.624.004a4.28 4.28 0 014.136 4.452 4.27 4.27 0 01-1.366 2.987 4.36 4.36 0 01-2.928 1.148zm-.02-6.51c-1.167 0-2.157.93-2.196 2.118a2.14 2.14 0 00.594 1.582c.395.436.95.673 1.523.693.574 0 1.148-.178 1.583-.594a2.15 2.15 0 00.693-1.523 2.206 2.206 0 00-2.118-2.276h-.079z" fill="#975295"/><path d="M27.446 53.844a3.245 3.245 0 100-6.49 3.245 3.245 0 000 6.49z" fill="#151514"/><path d="M27.466 54.893h-.158a4.28 4.28 0 01-4.136-4.452 4.27 4.27 0 011.366-2.988 4.124 4.124 0 013.086-1.148 4.27 4.27 0 012.988 1.366c.792.83 1.187 1.939 1.148 3.086-.1 2.315-1.999 4.136-4.294 4.136zm-.02-6.49c-.554 0-1.088.198-1.503.593a2.15 2.15 0 00-.693 1.524c-.04 1.207.91 2.236 2.117 2.275a2.206 2.206 0 002.276-2.117 2.144 2.144 0 00-.594-1.583 2.15 2.15 0 00-1.523-.692h-.08z" fill="#975295"/><path d="M50.616 30.692a3.245 3.245 0 100-6.49 3.245 3.245 0 000 6.49z" fill="#151514"/><path d="M50.616 31.74h-.158a4.28 4.28 0 01-4.135-4.452c.079-2.374 2.097-4.214 4.452-4.135a4.27 4.27 0 012.987 1.365 4.347 4.347 0 011.148 3.087 4.27 4.27 0 01-1.365 2.988 4.36 4.36 0 01-2.929 1.147zm0-6.51c-1.167 0-2.156.93-2.196 2.118-.04 1.207.91 2.236 2.117 2.275a2.173 2.173 0 001.583-.594 2.15 2.15 0 00.693-1.523 2.144 2.144 0 00-.594-1.583 2.187 2.187 0 00-1.524-.693h-.079z" fill="#975295"/><path d="M27.446 30.692a3.245 3.245 0 100-6.49 3.245 3.245 0 000 6.49z" fill="#151514"/><path d="M27.466 31.74h-.158a4.28 4.28 0 01-4.136-4.452c.08-2.374 2.098-4.214 4.452-4.135a4.27 4.27 0 012.988 1.365 4.262 4.262 0 011.148 3.087 4.27 4.27 0 01-1.366 2.988 4.36 4.36 0 01-2.928 1.147zm-.02-6.51c-1.167 0-2.156.93-2.196 2.118-.04 1.207.91 2.236 2.117 2.275a2.173 2.173 0 001.583-.594 2.15 2.15 0 00.693-1.523 2.144 2.144 0 00-.594-1.583 2.15 2.15 0 00-1.523-.693h-.08z" fill="#975295"/><path d="M4.296 30.692a3.245 3.245 0 100-6.49 3.245 3.245 0 000 6.49z" fill="#151514"/><path d="M4.296 31.74h-.158c-2.355-.098-4.215-2.097-4.136-4.45a4.27 4.27 0 011.366-2.99c.83-.792 1.919-1.188 3.086-1.148a4.27 4.27 0 012.988 1.365 4.262 4.262 0 011.148 3.087 4.27 4.27 0 01-1.365 2.988 4.323 4.323 0 01-2.929 1.147zm0-6.51c-.554 0-1.088.198-1.504.594a2.15 2.15 0 00-.692 1.524c-.04 1.207.91 2.236 2.117 2.275A2.174 2.174 0 005.8 29.03a2.15 2.15 0 00.692-1.524 2.144 2.144 0 00-.593-1.583 2.15 2.15 0 00-1.524-.692h-.079z" fill="#232322"/></svg>