<svg width="54" height="52" fill="none" xmlns="http://www.w3.org/2000/svg"><path d="M49.106 24.73H4.45v2.17h44.657v-2.17z" fill="#232322"/><path d="M27.863 4.45h-2.171v42.73h2.171V4.45z" fill="#232322"/><path d="M49.106 3.362H4.45v2.172h44.657V3.362zm0 43.225H4.45v2.171h44.657v-2.171z" fill="#232322"/><path d="M50.212 47.181h-2.171V6.99L27.556 26.594c-.43.41-1.086.41-1.495 0L5.576 6.99v40.19H3.363V4.45c0-.43.267-.82.656-1.004.39-.164.86-.082 1.167.205L26.777 24.32 48.368 3.67a1.035 1.035 0 011.168-.205c.41.164.656.574.656 1.004V47.18h.02z" fill="#7BBFE2"/><path d="M4.45 7.809a3.36 3.36 0 100-6.72 3.36 3.36 0 000 6.72z" fill="#151514"/><path d="M4.45 8.894h-.165a4.42 4.42 0 01-3.093-1.413C.372 6.62-.038 5.473.004 4.285.086 1.827 2.175-.099 4.613.004a4.431 4.431 0 014.281 4.609 4.42 4.42 0 01-1.413 3.093c-.82.779-1.885 1.188-3.032 1.188zm0-6.719a2.28 2.28 0 00-2.275 2.192 2.22 2.22 0 00.615 1.639c.41.45.983.696 1.577.717a2.19 2.19 0 001.639-.615c.45-.43.696-.983.717-1.577.04-1.25-.942-2.315-2.192-2.356h-.082z" fill="#7BBFE2"/><path d="M4.45 50.538a3.36 3.36 0 100-6.719 3.36 3.36 0 000 6.72z" fill="#151514"/><path d="M4.45 51.624h-.165a4.42 4.42 0 01-3.093-1.413 4.413 4.413 0 01-1.188-3.196c.082-2.458 2.192-4.363 4.609-4.281a4.42 4.42 0 013.093 1.413 4.407 4.407 0 011.188 3.196 4.42 4.42 0 01-1.413 3.093 4.38 4.38 0 01-3.032 1.188zm0-6.719c-1.23 0-2.234.963-2.275 2.192-.04 1.25.943 2.315 2.192 2.356.635.041 1.188-.184 1.639-.614.45-.41.696-.984.717-1.578a2.25 2.25 0 00-.615-1.639 2.227 2.227 0 00-1.577-.717h-.082z" fill="#7BBFE2"/><path d="M49.126 7.809a3.36 3.36 0 100-6.72 3.36 3.36 0 000 6.72z" fill="#151514"/><path d="M49.127 8.894h-.164a4.42 4.42 0 01-3.094-1.413c-.819-.86-1.229-2.008-1.188-3.196.082-2.458 2.192-4.384 4.61-4.281a4.42 4.42 0 013.093 1.413 4.415 4.415 0 011.188 3.196c-.103 2.397-2.07 4.281-4.446 4.281zm0-6.719a2.28 2.28 0 00-2.274 2.192 2.22 2.22 0 00.614 1.639c.41.45.983.696 1.578.717 1.25.04 2.314-.942 2.355-2.192.041-1.25-.942-2.315-2.191-2.356h-.083z" fill="#7BBFE2"/><path d="M49.126 29.286a3.36 3.36 0 100-6.719 3.36 3.36 0 000 6.72z" fill="#151514"/><path d="M49.127 30.373h-.164a4.42 4.42 0 01-3.094-1.414c-.819-.86-1.229-2.007-1.188-3.195.082-2.458 2.192-4.384 4.61-4.282a4.42 4.42 0 013.093 1.414 4.411 4.411 0 011.188 3.195c-.103 2.397-2.07 4.282-4.446 4.282zm0-6.72a2.28 2.28 0 00-2.274 2.193 2.22 2.22 0 00.614 1.639c.41.45.983.696 1.578.716 1.25.041 2.314-.942 2.355-2.191.041-1.25-.942-2.315-2.191-2.356h-.083z" fill="#7BBFE2"/><path d="M4.448 29.286a3.36 3.36 0 100-6.719 3.36 3.36 0 000 6.72z" fill="#151514"/><path d="M4.448 30.373h-.164a4.42 4.42 0 01-3.093-1.414C.37 28.1-.04 26.952.003 25.764c.082-2.458 2.192-4.384 4.609-4.282a4.42 4.42 0 013.093 1.414c.82.88 1.23 2.007 1.188 3.195-.102 2.397-2.069 4.282-4.445 4.282zm0-6.72a2.28 2.28 0 00-2.274 2.193 2.22 2.22 0 00.615 1.639c.41.45.983.696 1.577.716 1.25.041 2.315-.942 2.356-2.191.04-1.25-.942-2.315-2.192-2.356h-.082z" fill="#7BBFE2"/><path d="M26.777 29.176a3.36 3.36 0 100-6.719 3.36 3.36 0 000 6.72z" fill="#151514"/><path d="M26.798 30.261h-.164a4.42 4.42 0 01-3.093-1.413 4.412 4.412 0 01-1.188-3.196 4.445 4.445 0 014.61-4.281 4.431 4.431 0 014.28 4.61 4.42 4.42 0 01-1.413 3.092 4.417 4.417 0 01-3.032 1.188zm-.02-6.719a2.28 2.28 0 00-2.274 2.192c-.02.615.184 1.188.614 1.639.41.45.984.697 1.578.717a2.25 2.25 0 001.638-.615c.451-.41.697-.983.717-1.577.041-1.25-.942-2.315-2.192-2.356h-.082z" fill="#7BBFE2"/><path d="M49.126 50.538a3.36 3.36 0 100-6.719 3.36 3.36 0 000 6.72z" fill="#151514"/><path d="M49.127 51.625h-.164a4.431 4.431 0 01-4.282-4.61 4.445 4.445 0 014.61-4.281 4.42 4.42 0 013.093 1.414 4.411 4.411 0 011.188 3.195c-.103 2.397-2.07 4.282-4.446 4.282zm-.021-6.72c-.574 0-1.127.206-1.557.615-.45.41-.696.983-.717 1.577-.04 1.25.943 2.315 2.192 2.356a2.258 2.258 0 002.356-2.192 2.219 2.219 0 00-.615-1.638 2.226 2.226 0 00-1.577-.717h-.082z" fill="#7BBFE2"/></svg>