<svg width="54" height="61" fill="none" xmlns="http://www.w3.org/2000/svg"><path d="M28.04 8.075h-2.097v45.193h2.097V8.075z" fill="#232322"/><path d="M49.588 29.643H4.395v2.097h45.193v-2.097z" fill="#232322"/><path d="M26.991 58.314c-.296 0-.593-.139-.791-.376L3.505 31.463a1.05 1.05 0 010-1.365L26.2 3.624c.396-.475 1.187-.475 1.603 0l22.695 26.474c.336.396-1.682 3.265-2.018 3.66l-20.697 24.18a1.014 1.014 0 01-.792.376zM5.681 30.77l21.31 24.871 21.31-24.871-21.31-24.872L5.681 30.77z" fill="#C63432"/><path d="M40.05 43.631l-1.602-1.365 9.834-11.496-9.913-11.615 1.602-1.365 10.487 12.288c.337.395.337.969 0 1.365L40.051 43.63z" fill="#232322"/><path d="M26.991 7.542a3.245 3.245 0 100-6.49 3.245 3.245 0 000 6.49z" fill="#151514"/><path d="M26.991 8.59h-.158a4.27 4.27 0 01-2.988-1.365 4.262 4.262 0 01-1.147-3.087A4.293 4.293 0 0127.15.003a4.28 4.28 0 014.135 4.452 4.27 4.27 0 01-1.365 2.987 4.23 4.23 0 01-2.93 1.148zm0-6.49c-1.167 0-2.156.93-2.196 2.117a2.14 2.14 0 00.594 1.583c.396.435.95.673 1.523.693a2.173 2.173 0 001.583-.594 2.15 2.15 0 00.693-1.523A2.206 2.206 0 0027.071 2.1h-.08z" fill="#C63432"/><path d="M26.991 59.839a3.245 3.245 0 100-6.49 3.245 3.245 0 000 6.49z" fill="#151514"/><path d="M26.991 60.906h-.158a4.27 4.27 0 01-2.988-1.365 4.262 4.262 0 01-1.147-3.087c.079-2.374 2.097-4.214 4.452-4.135a4.27 4.27 0 012.988 1.365 4.262 4.262 0 011.147 3.087 4.27 4.27 0 01-1.365 2.988 4.322 4.322 0 01-2.929 1.147zm-2.196-4.392a2.205 2.205 0 002.117 2.275 2.173 2.173 0 001.583-.593 2.15 2.15 0 00.693-1.524 2.144 2.144 0 00-.594-1.583 2.15 2.15 0 00-1.523-.692 2.193 2.193 0 00-2.276 2.117z" fill="#C63432"/><path d="M49.687 33.938a3.245 3.245 0 100-6.49 3.245 3.245 0 000 6.49z" fill="#151514"/><path d="M49.687 35.006h-.159a4.27 4.27 0 01-2.987-1.365 4.262 4.262 0 01-1.148-3.087c.08-2.374 2.097-4.215 4.452-4.135a4.27 4.27 0 012.988 1.365 4.262 4.262 0 011.147 3.086 4.27 4.27 0 01-1.365 2.988 4.36 4.36 0 01-2.928 1.148zm0-6.51c-1.168 0-2.157.93-2.197 2.117a2.206 2.206 0 002.117 2.276 2.174 2.174 0 001.583-.594 2.15 2.15 0 00.693-1.524 2.173 2.173 0 00-.594-1.582 2.15 2.15 0 00-1.523-.693h-.08z" fill="#232322"/><path d="M26.991 33.938a3.245 3.245 0 100-6.49 3.245 3.245 0 000 6.49z" fill="#151514"/><path d="M26.991 35.006h-.158a4.27 4.27 0 01-2.988-1.365 4.262 4.262 0 01-1.147-3.087c.079-2.374 2.097-4.215 4.452-4.135a4.27 4.27 0 012.988 1.365 4.262 4.262 0 011.147 3.086 4.27 4.27 0 01-1.365 2.988 4.322 4.322 0 01-2.929 1.148zm0-6.51c-1.167 0-2.156.93-2.196 2.117a2.206 2.206 0 002.117 2.276 2.174 2.174 0 001.583-.594 2.15 2.15 0 00.693-1.524 2.144 2.144 0 00-.594-1.582 2.15 2.15 0 00-1.523-.693h-.08z" fill="#232322"/><path d="M4.296 33.938a3.245 3.245 0 100-6.49 3.245 3.245 0 000 6.49z" fill="#151514"/><path d="M4.296 35.006h-.158A4.27 4.27 0 011.15 33.64a4.262 4.262 0 01-1.147-3.087c.079-2.374 2.117-4.215 4.452-4.135a4.27 4.27 0 012.987 1.365A4.262 4.262 0 018.59 30.87a4.27 4.27 0 01-1.365 2.988 4.323 4.323 0 01-2.929 1.148zm0-6.51c-1.167 0-2.156.93-2.196 2.117a2.206 2.206 0 002.117 2.276 2.174 2.174 0 001.583-.594 2.15 2.15 0 00.693-1.524 2.144 2.144 0 00-.594-1.582 2.15 2.15 0 00-1.523-.693h-.08z" fill="#C63432"/><path d="M14.941 21.887a3.245 3.245 0 100-6.49 3.245 3.245 0 000 6.49z" fill="#151514"/><path d="M14.941 22.954h-.158a4.27 4.27 0 01-2.988-1.365c-1.622-1.741-1.523-4.472.218-6.074.831-.792 1.92-1.188 3.087-1.148a4.27 4.27 0 012.987 1.365c.792.831 1.188 1.94 1.148 3.087a4.27 4.27 0 01-1.365 2.988 4.322 4.322 0 01-2.929 1.147zm-1.602-2.81c.83.891 2.216.93 3.106.12a2.15 2.15 0 00.693-1.524 2.143 2.143 0 00-.594-1.583 2.15 2.15 0 00-1.523-.693 2.144 2.144 0 00-1.583.594 2.186 2.186 0 00-.1 3.087z" fill="#C63432"/><path d="M39.22 46.166a3.245 3.245 0 100-6.49 3.245 3.245 0 000 6.49z" fill="#151514"/><path d="M39.22 47.234h-.159a4.27 4.27 0 01-2.987-1.366c-.792-.83-1.188-1.939-1.148-3.086a4.27 4.27 0 011.365-2.988c.831-.792 1.94-1.187 3.087-1.148a4.27 4.27 0 012.988 1.365c1.622 1.742 1.523 4.472-.218 6.075a4.323 4.323 0 01-2.928 1.148zm0-6.51a2.23 2.23 0 00-1.504.593 2.15 2.15 0 00-.693 1.524 2.14 2.14 0 00.594 1.583c.396.435.95.673 1.523.692a2.173 2.173 0 001.583-.593c.89-.831.93-2.216.12-3.107a2.248 2.248 0 00-1.623-.692z" fill="#C63432"/><path d="M39.2 21.727a3.245 3.245 0 100-6.49 3.245 3.245 0 000 6.49z" fill="#151514"/><path d="M39.2 22.796h-.159a4.27 4.27 0 01-2.987-1.365c-.792-.831-1.187-1.94-1.148-3.087a4.27 4.27 0 011.365-2.988c.831-.791 1.94-1.187 3.087-1.147a4.27 4.27 0 012.988 1.365 4.263 4.263 0 011.148 3.087 4.27 4.27 0 01-1.366 2.987 4.36 4.36 0 01-2.928 1.148zm0-6.51a2.23 2.23 0 00-1.504.594 2.15 2.15 0 00-.692 1.524c-.02.593.178 1.147.593 1.582.396.436.95.673 1.524.693a2.204 2.204 0 001.583-.594c.89-.83.93-2.216.118-3.106a2.248 2.248 0 00-1.622-.693z" fill="#C63432"/><path d="M14.842 46.086a3.245 3.245 0 100-6.49 3.245 3.245 0 000 6.49z" fill="#151514"/><path d="M14.843 47.154a4.29 4.29 0 01-3.146-1.365c-.792-.83-1.188-1.939-1.148-3.087a4.27 4.27 0 011.365-2.987c.831-.792 1.94-1.168 3.087-1.148a4.27 4.27 0 012.988 1.365 4.29 4.29 0 01-.218 6.075 4.375 4.375 0 01-2.928 1.148zm0-6.51c-.535 0-1.069.199-1.504.594a2.15 2.15 0 00-.693 1.524c-.02.593.178 1.148.594 1.583.831.89 2.216.93 3.106.119.89-.831.93-2.217.12-3.107a2.193 2.193 0 00-1.623-.712z" fill="#C63432"/></svg>