<svg width="54" height="52" fill="none" xmlns="http://www.w3.org/2000/svg"><path d="M49.069 24.712H4.446v2.17h44.623v-2.17z" fill="#232322"/><path d="M27.842 4.446h-2.17v42.7h2.17v-42.7z" fill="#232322"/><path d="M49.069 3.36H4.446v2.17h44.623V3.36zm0 43.192H4.446v2.17h44.623v-2.17z" fill="#232322"/><path d="M50.174 47.146h-2.17V6.985l-20.469 19.59c-.43.409-1.085.409-1.494 0L5.57 6.984v40.16H3.36V4.448c0-.43.266-.819.655-1.003.389-.164.86-.082 1.167.205l21.574 20.653L48.332 3.67a1.033 1.033 0 011.167-.205c.41.164.655.573.655 1.003v42.679h.02z" fill="#C63432"/><path d="M4.446 7.803a3.357 3.357 0 100-6.714 3.357 3.357 0 000 6.714z" fill="#151514"/><path d="M4.446 8.888h-.164a4.417 4.417 0 01-3.09-1.413C.371 6.615-.038 5.47.003 4.282.086 1.826 2.174-.098 4.61.004A4.428 4.428 0 018.888 4.61 4.417 4.417 0 017.476 7.7c-.82.778-1.884 1.188-3.03 1.188zm0-6.714a2.277 2.277 0 00-2.272 2.19c-.02.614.184 1.187.614 1.637.41.45.983.696 1.576.717a2.188 2.188 0 001.638-.614c.45-.43.696-.983.716-1.576.041-1.249-.941-2.313-2.19-2.354h-.082z" fill="#C63432"/><path d="M4.446 50.501a3.357 3.357 0 100-6.714 3.357 3.357 0 000 6.714z" fill="#151514"/><path d="M4.446 51.586h-.164a4.417 4.417 0 01-3.091-1.412 4.41 4.41 0 01-1.187-3.193c.082-2.456 2.19-4.36 4.605-4.278A4.417 4.417 0 017.7 44.115a4.41 4.41 0 011.187 3.193A4.417 4.417 0 017.475 50.4a4.377 4.377 0 01-3.03 1.187zm0-6.713a2.264 2.264 0 00-2.272 2.19c-.041 1.248.941 2.313 2.19 2.354.634.04 1.187-.184 1.637-.614.45-.41.696-.983.717-1.577a2.248 2.248 0 00-.614-1.637 2.225 2.225 0 00-1.577-.716h-.081z" fill="#C63432"/><path d="M49.09 7.803a3.357 3.357 0 100-6.714 3.357 3.357 0 000 6.714z" fill="#151514"/><path d="M49.09 8.888h-.165a4.417 4.417 0 01-3.09-1.413c-.82-.86-1.229-2.006-1.188-3.193.082-2.456 2.19-4.38 4.606-4.278a4.417 4.417 0 013.09 1.412 4.409 4.409 0 011.188 3.193c-.102 2.395-2.067 4.279-4.442 4.279zm0-6.714a2.277 2.277 0 00-2.273 2.19c-.02.614.184 1.187.614 1.637.41.45.983.696 1.576.717 1.249.04 2.313-.942 2.354-2.19.041-1.249-.941-2.313-2.19-2.354h-.082z" fill="#C63432"/><path d="M49.09 29.267a3.357 3.357 0 100-6.714 3.357 3.357 0 000 6.714z" fill="#151514"/><path d="M49.09 30.352h-.165a4.418 4.418 0 01-3.09-1.413c-.82-.86-1.229-2.006-1.188-3.193.082-2.456 2.19-4.38 4.606-4.278a4.417 4.417 0 013.09 1.412 4.409 4.409 0 011.188 3.193c-.102 2.395-2.067 4.279-4.442 4.279zm0-6.715a2.277 2.277 0 00-2.273 2.19c-.02.615.184 1.188.614 1.638.41.45.983.696 1.576.717 1.249.04 2.313-.942 2.354-2.19.041-1.25-.941-2.314-2.19-2.355h-.082z" fill="#C63432"/><path d="M4.445 29.267a3.357 3.357 0 100-6.714 3.357 3.357 0 000 6.714z" fill="#151514"/><path d="M4.445 30.352H4.28a4.417 4.417 0 01-3.091-1.413c-.819-.86-1.228-2.006-1.187-3.193.082-2.456 2.19-4.38 4.605-4.278A4.417 4.417 0 017.7 22.88a4.409 4.409 0 011.187 3.193c-.102 2.395-2.067 4.279-4.441 4.279zm0-6.715a2.277 2.277 0 00-2.272 2.19c-.02.615.184 1.188.614 1.638.409.45.982.696 1.576.717 1.248.04 2.313-.942 2.354-2.19.04-1.25-.942-2.314-2.19-2.355h-.082z" fill="#C63432"/><path d="M26.757 29.153a3.357 3.357 0 100-6.713 3.357 3.357 0 000 6.713z" fill="#151514"/><path d="M26.778 30.238h-.164a4.417 4.417 0 01-3.091-1.412 4.41 4.41 0 01-1.187-3.194 4.44 4.44 0 014.606-4.278 4.428 4.428 0 014.277 4.606 4.417 4.417 0 01-1.412 3.09 4.413 4.413 0 01-3.03 1.188zm-.02-6.714a2.277 2.277 0 00-2.273 2.19 2.22 2.22 0 00.614 1.638c.41.45.983.696 1.576.716a2.248 2.248 0 001.638-.614c.45-.41.696-.982.716-1.576.041-1.248-.941-2.313-2.19-2.354h-.082z" fill="#C63432"/><path d="M49.09 50.501a3.357 3.357 0 100-6.714 3.357 3.357 0 000 6.714z" fill="#151514"/><path d="M49.09 51.587h-.165a4.428 4.428 0 01-4.277-4.606 4.441 4.441 0 014.606-4.278 4.417 4.417 0 013.09 1.412 4.41 4.41 0 011.187 3.194c-.102 2.395-2.067 4.278-4.442 4.278zm-.021-6.714c-.573 0-1.126.204-1.556.614-.45.41-.696.982-.716 1.576-.041 1.249.941 2.313 2.19 2.354a2.257 2.257 0 002.354-2.19 2.218 2.218 0 00-.614-1.638 2.225 2.225 0 00-1.576-.716h-.082z" fill="#C63432"/><path d="M26.573 50.47a3.336 3.336 0 100-6.673 3.336 3.336 0 000 6.673z" fill="#151514"/><path d="M26.573 51.555h-.164a4.29 4.29 0 01-3.07-1.412 4.415 4.415 0 01-1.187-3.173 4.29 4.29 0 011.412-3.07 4.416 4.416 0 013.173-1.187 4.29 4.29 0 013.07 1.412 4.416 4.416 0 011.187 3.173 4.29 4.29 0 01-1.412 3.07 4.421 4.421 0 01-3.009 1.187zm0-6.673c-.573 0-1.105.205-1.535.614-.45.41-.696.962-.717 1.577-.02.593.185 1.187.594 1.617.41.45.962.696 1.576.716a2.205 2.205 0 001.617-.593c.45-.41.696-.963.717-1.577a2.236 2.236 0 00-.594-1.617 2.189 2.189 0 00-1.576-.716c-.02-.02-.062-.02-.082-.02z" fill="#232321"/><path d="M26.573 7.979a3.336 3.336 0 100-6.673 3.336 3.336 0 000 6.673z" fill="#151514"/><path d="M26.573 9.064h-.164a4.29 4.29 0 01-3.07-1.412 4.416 4.416 0 01-1.187-3.173 4.29 4.29 0 011.412-3.07A4.415 4.415 0 0126.737.22a4.29 4.29 0 013.07 1.413 4.416 4.416 0 011.187 3.173 4.29 4.29 0 01-1.412 3.07 4.421 4.421 0 01-3.009 1.187zm0-6.673c-.573 0-1.105.205-1.535.614-.45.41-.696.962-.717 1.576-.02.594.185 1.188.594 1.617.41.45.962.696 1.576.717a2.205 2.205 0 001.617-.594c.45-.41.696-.962.717-1.576a2.236 2.236 0 00-.594-1.617 2.188 2.188 0 00-1.576-.716c-.02-.02-.062-.02-.082-.02z" fill="#232321"/></svg>