<svg width="52" height="60" fill="none" xmlns="http://www.w3.org/2000/svg"><path d="M26.714 3.227h-2.077v52.256h2.077V3.227z" fill="#232321"/><path d="M25.21 2.318L3.8 13.168l.94 1.854 21.409-10.85-.94-1.854zM4.732 44.152l-.906 1.87 21.4 10.376.907-1.87-21.4-10.376zM27.114 2.301l-.94 1.853L47.582 15.01l.94-1.853L27.114 2.301zM47.559 44.15L26.16 54.527l.906 1.87 21.398-10.38-.906-1.869z" fill="#232321"/><path d="M25.685 58.71a3.225 3.225 0 100-6.451 3.225 3.225 0 000 6.45z" fill="#151514"/><path d="M25.685 59.758h-.158a4.147 4.147 0 01-2.968-1.366 4.269 4.269 0 01-1.148-3.067 4.147 4.147 0 011.366-2.968c.83-.771 1.92-1.167 3.067-1.147a4.147 4.147 0 012.968 1.365 4.268 4.268 0 011.147 3.067c-.099 2.295-1.998 4.115-4.274 4.115zm0-6.45a2.11 2.11 0 00-1.484.593c-.435.395-.672.93-.692 1.523-.02.574.178 1.148.574 1.563.395.436.93.673 1.523.693a2.16 2.16 0 002.256-2.097 2.162 2.162 0 00-.574-1.564 2.115 2.115 0 00-1.523-.692c-.02-.02-.06-.02-.08-.02z" fill="#232321"/><path d="M25.685 7.501a3.225 3.225 0 100-6.45 3.225 3.225 0 000 6.45z" fill="#151514"/><path d="M25.685 8.55h-.158a4.147 4.147 0 01-2.968-1.365 4.269 4.269 0 01-1.148-3.067 4.147 4.147 0 011.366-2.968A4.268 4.268 0 0125.844.003a4.147 4.147 0 012.968 1.365 4.268 4.268 0 011.147 3.067 4.146 4.146 0 01-1.365 2.968 4.274 4.274 0 01-2.909 1.147zm0-6.45c-.554 0-1.068.198-1.484.594-.435.395-.672.93-.692 1.523-.02.574.178 1.148.574 1.563.395.436.93.673 1.523.693a2.132 2.132 0 001.563-.574c.436-.396.673-.93.693-1.524a2.162 2.162 0 00-.574-1.563 2.115 2.115 0 00-1.523-.692c-.02-.02-.06-.02-.08-.02zm21.39 26.217H4.277v2.078h42.798v-2.078z" fill="#232321"/><path d="M45.008 42.336L7.584 15.071l-1.223 1.68 37.425 27.265 1.224-1.68zm3.095-28.246h-2.077v30.55h2.077V14.09zm-42.798 0H3.228v30.55h2.077V14.09z" fill="#7BBFE2"/><path d="M4.276 17.316a3.225 3.225 0 100-6.45 3.225 3.225 0 000 6.45z" fill="#151514"/><path d="M4.276 18.364h-.158a4.146 4.146 0 01-2.968-1.365c-.771-.851-1.187-1.92-1.147-3.067a4.146 4.146 0 011.365-2.968c.83-.772 1.92-1.168 3.067-1.148 2.354.08 4.195 2.078 4.115 4.413a4.146 4.146 0 01-1.365 2.968c-.811.751-1.84 1.167-2.909 1.167zm-.02-6.45c-.553 0-1.068.197-1.483.593-.436.396-.673.93-.693 1.524-.02.573.178 1.147.574 1.563.396.435.93.673 1.524.692a2.162 2.162 0 001.563-.574c.435-.395.672-.93.692-1.523a2.172 2.172 0 00-2.097-2.256c-.02-.02-.04-.02-.08-.02z" fill="#7BBFE2"/><path d="M4.276 47.865a3.225 3.225 0 100-6.45 3.225 3.225 0 000 6.45z" fill="#151514"/><path d="M4.276 48.895h-.158A4.147 4.147 0 011.15 47.53a4.268 4.268 0 01-1.147-3.067c.079-2.355 2.077-4.175 4.412-4.116 2.355.08 4.195 2.078 4.116 4.413a4.262 4.262 0 01-4.255 4.135zm0-6.45A2.18 2.18 0 002.1 44.541c-.02.574.178 1.148.574 1.563.396.435.93.673 1.523.693a2.132 2.132 0 001.563-.574c.436-.396.673-.93.693-1.524a2.172 2.172 0 00-2.097-2.256h-.08z" fill="#7BBFE2"/><path d="M47.075 17.317a3.225 3.225 0 100-6.45 3.225 3.225 0 000 6.45z" fill="#151514"/><path d="M47.075 18.366h-.159A4.147 4.147 0 0143.95 17a4.269 4.269 0 01-1.148-3.066 4.147 4.147 0 011.365-2.968 4.268 4.268 0 013.067-1.148 4.147 4.147 0 012.968 1.365 4.268 4.268 0 011.148 3.067 4.147 4.147 0 01-1.366 2.968 4.274 4.274 0 01-2.908 1.148zm0-6.45c-.554 0-1.069.197-1.484.593-.435.396-.673.93-.693 1.524-.02.573.178 1.147.574 1.563.396.435.93.672 1.524.692.554.02 1.147-.178 1.563-.574.435-.395.672-.93.692-1.523a2.162 2.162 0 00-.573-1.563 2.115 2.115 0 00-1.524-.693c-.02-.02-.06-.02-.08-.02z" fill="#7BBFE2"/><path d="M47.075 32.59a3.225 3.225 0 100-6.45 3.225 3.225 0 000 6.45z" fill="#151514"/><path d="M47.075 33.62h-.159a4.147 4.147 0 01-2.967-1.366 4.269 4.269 0 01-1.148-3.066 4.147 4.147 0 011.365-2.968 4.269 4.269 0 013.067-1.148 4.147 4.147 0 012.968 1.365 4.268 4.268 0 011.148 3.067 4.289 4.289 0 01-4.274 4.116zm0-6.43c-.554 0-1.069.197-1.484.593-.435.395-.673.93-.693 1.523-.02.574.178 1.148.574 1.563.396.436.93.673 1.524.693 1.226.06 2.216-.89 2.255-2.098a2.162 2.162 0 00-.573-1.563 2.115 2.115 0 00-1.524-.692c-.02-.02-.06-.02-.08-.02z" fill="#7BBFE2"/><path d="M25.685 32.59a3.225 3.225 0 100-6.45 3.225 3.225 0 000 6.45z" fill="#151514"/><path d="M25.685 33.62h-.158a4.147 4.147 0 01-2.968-1.366 4.269 4.269 0 01-1.148-3.066 4.147 4.147 0 011.366-2.968 4.269 4.269 0 013.067-1.148 4.147 4.147 0 012.968 1.365 4.268 4.268 0 011.147 3.067 4.289 4.289 0 01-4.274 4.116zm0-6.43a2.11 2.11 0 00-1.484.593c-.435.395-.672.93-.692 1.523-.02.574.178 1.148.574 1.563.395.436.93.673 1.523.693 1.227.06 2.216-.89 2.256-2.098a2.162 2.162 0 00-.574-1.563 2.115 2.115 0 00-1.523-.692c-.02-.02-.06-.02-.08-.02z" fill="#7BBFE2"/><path d="M4.276 32.59a3.225 3.225 0 100-6.45 3.225 3.225 0 000 6.45z" fill="#151514"/><path d="M4.276 33.62h-.158a4.147 4.147 0 01-2.968-1.365 4.268 4.268 0 01-1.147-3.067 4.147 4.147 0 011.365-2.968c.83-.772 1.92-1.168 3.067-1.148a4.267 4.267 0 014.115 4.412c-.099 2.335-1.998 4.136-4.274 4.136zm-.02-6.43c-.553 0-1.068.197-1.483.593-.436.395-.673.93-.693 1.523-.02.574.178 1.148.574 1.563.396.436.93.673 1.524.693a2.16 2.16 0 002.255-2.097 2.172 2.172 0 00-2.097-2.256c-.02-.02-.04-.02-.08-.02z" fill="#7BBFE2"/><path d="M47.075 47.865a3.225 3.225 0 100-6.45 3.225 3.225 0 000 6.45z" fill="#151514"/><path d="M47.075 48.895h-.159a4.147 4.147 0 01-2.967-1.365 4.269 4.269 0 01-1.148-3.067c.08-2.355 2.078-4.175 4.412-4.116a4.147 4.147 0 012.968 1.365 4.268 4.268 0 011.148 3.067 4.258 4.258 0 01-4.254 4.116zm0-6.45a2.18 2.18 0 00-2.177 2.097c-.02.574.178 1.148.574 1.563.396.435.93.673 1.524.693a2.132 2.132 0 001.563-.574c.435-.396.672-.93.692-1.524a2.162 2.162 0 00-.573-1.563 2.115 2.115 0 00-1.524-.693h-.08z" fill="#7BBFE2"/></svg>