<svg width="36" height="36" fill="none" xmlns="http://www.w3.org/2000/svg"><path d="M11.172 11.672c1.77-1.771 3.906-2.656 6.406-2.656 2.5 0 4.61.885 6.328 2.656C25.677 13.39 26.563 15.5 26.563 18c0 2.5-.886 4.635-2.657 6.406-1.718 1.719-3.828 2.578-6.328 2.578-2.5 0-4.635-.859-6.406-2.578C9.453 22.636 8.594 20.5 8.594 18c0-2.5.86-4.61 2.578-6.328zm2.265 10.469c1.146 1.146 2.527 1.718 4.141 1.718 1.615 0 2.995-.573 4.14-1.718 1.147-1.146 1.72-2.526 1.72-4.141 0-1.615-.573-2.995-1.72-4.14-1.145-1.146-2.525-1.72-4.14-1.72-1.614 0-2.995.573-4.14 1.72-1.146 1.145-1.72 2.525-1.72 4.14 0 1.615.574 2.995 1.72 4.14zM28.36 7.219c.417.364.625.833.625 1.406s-.208 1.068-.625 1.484c-.364.417-.833.625-1.406.625a2.028 2.028 0 01-1.484-.625 2.028 2.028 0 01-.625-1.484c0-.573.208-1.042.625-1.406a2.028 2.028 0 011.484-.625c.573 0 1.042.208 1.406.625zM35 10.812c.052 1.407.078 3.803.078 7.188s-.026 5.781-.078 7.188c-.156 3.177-1.12 5.65-2.89 7.421-1.72 1.72-4.167 2.63-7.344 2.735-1.407.104-3.802.156-7.188.156-3.385 0-5.781-.052-7.187-.156-3.177-.157-5.625-1.094-7.344-2.813a7.54 7.54 0 01-1.64-2.187 12.83 12.83 0 01-.938-2.422c-.156-.781-.235-1.693-.235-2.735C.13 23.782.078 21.386.078 18c0-3.385.052-5.807.156-7.266C.391 7.61 1.328 5.188 3.047 3.47 4.766 1.698 7.214.734 10.39.579 11.797.525 14.193.5 17.578.5c3.386 0 5.781.026 7.188.078 3.177.156 5.625 1.12 7.343 2.89 1.771 1.72 2.735 4.167 2.891 7.345zm-3.75 17.5a8.42 8.42 0 00.39-1.562 25.39 25.39 0 00.235-2.344 42.78 42.78 0 00.078-2.265v-8.282c0-.572-.026-1.302-.078-2.187a22.103 22.103 0 00-.234-2.344c-.104-.677-.235-1.224-.391-1.64-.625-1.615-1.745-2.735-3.36-3.36-.416-.156-.963-.286-1.64-.39a22.107 22.107 0 00-2.344-.235 38.607 38.607 0 00-2.187-.078h-8.281c-.573 0-1.329.026-2.266.078a25.4 25.4 0 00-2.344.235c-.625.104-1.146.234-1.562.39-1.615.625-2.735 1.745-3.36 3.36-.156.416-.286.963-.39 1.64a22.11 22.11 0 00-.235 2.344 38.611 38.611 0 00-.078 2.187v9.375c.052.782.104 1.459.156 2.032.052.52.13 1.067.235 1.64.104.573.208 1.042.312 1.407.677 1.614 1.797 2.734 3.36 3.359.416.156.937.286 1.562.39.677.105 1.459.183 2.344.235a42.11 42.11 0 002.187.078h8.361c.573 0 1.302-.026 2.187-.078a22.1 22.1 0 002.344-.234c.677-.105 1.224-.235 1.64-.391 1.615-.677 2.735-1.797 3.36-3.36z" fill="#fff"/></svg>