<svg width="54" height="52" fill="none" xmlns="http://www.w3.org/2000/svg"><path d="M49.242 24.8H4.46v2.177h44.782V24.8z" fill="#232322"/><path d="M27.94 4.46h-2.177v42.852h2.177V4.46z" fill="#232322"/><path d="M5.295 4.108H3.118V46.96h2.177V4.11z" fill="#65A85A"/><path d="M50.114 4.108h-2.178V46.96h2.178V4.11z" fill="#232322"/><path d="M49.242 3.371H4.46V5.55h44.782V3.37z" fill="#232322"/><path d="M49.242 46.717H4.46v2.177h44.782v-2.177z" fill="#65A85A"/><path d="M4.46 7.833a3.369 3.369 0 100-6.738 3.369 3.369 0 000 6.738z" fill="#151514"/><path d="M4.46 8.92h-.164a4.433 4.433 0 01-3.102-1.418C.373 6.639-.038 5.489.003 4.297.085 1.832 2.18-.099 4.625.004a4.444 4.444 0 014.293 4.622 4.433 4.433 0 01-1.417 3.102c-.822.78-1.89 1.191-3.04 1.191zm0-6.739a2.286 2.286 0 00-2.28 2.198c-.02.617.185 1.192.617 1.644.41.452.986.698 1.581.719a2.195 2.195 0 001.644-.617 2.27 2.27 0 00.719-1.581c.04-1.253-.945-2.322-2.198-2.363H4.46z" fill="#65A85A"/><path d="M4.46 50.681a3.369 3.369 0 100-6.738 3.369 3.369 0 000 6.738z" fill="#151514"/><path d="M4.46 51.77h-.164a4.433 4.433 0 01-3.102-1.418 4.425 4.425 0 01-1.191-3.205c.082-2.465 2.198-4.375 4.622-4.293 1.191.041 2.3.555 3.102 1.418a4.425 4.425 0 011.191 3.204 4.433 4.433 0 01-1.417 3.102 4.393 4.393 0 01-3.04 1.191zm0-6.738a2.272 2.272 0 00-2.28 2.198c-.04 1.253.945 2.32 2.198 2.362.637.041 1.192-.185 1.644-.616.452-.411.698-.986.719-1.582a2.257 2.257 0 00-.617-1.643 2.232 2.232 0 00-1.581-.72H4.46z" fill="#65A85A"/><path d="M27.064 50.702a3.369 3.369 0 100-6.738 3.369 3.369 0 000 6.738z" fill="#151514"/><path d="M27.064 51.79H26.9a4.433 4.433 0 01-3.102-1.418c-.821-.863-1.232-2.013-1.191-3.205.082-2.465 2.198-4.396 4.622-4.293 1.191.041 2.3.555 3.102 1.417a4.426 4.426 0 011.191 3.205c-.103 2.403-2.075 4.293-4.457 4.293zm0-6.739a2.286 2.286 0 00-2.28 2.198c-.02.617.185 1.192.617 1.644.41.452.986.698 1.581.719 1.253.04 2.322-.945 2.363-2.198.04-1.253-.945-2.321-2.198-2.363h-.082z" fill="#65A85A"/><path d="M27.064 29.265a3.369 3.369 0 100-6.738 3.369 3.369 0 000 6.738z" fill="#151514"/><path d="M27.064 30.354H26.9a4.433 4.433 0 01-3.102-1.418c-.821-.862-1.232-2.013-1.191-3.204.082-2.465 2.198-4.396 4.622-4.293a4.43 4.43 0 013.102 1.417 4.425 4.425 0 011.191 3.204c-.103 2.404-2.075 4.294-4.457 4.294zm0-6.738a2.285 2.285 0 00-2.28 2.198c-.02.616.185 1.191.617 1.643.41.452.986.699 1.581.72 1.253.04 2.322-.946 2.363-2.199.04-1.253-.945-2.321-2.198-2.362h-.082z" fill="#232322"/><path d="M27.064 7.833a3.369 3.369 0 100-6.738 3.369 3.369 0 000 6.738z" fill="#151514"/><path d="M27.064 8.92H26.9a4.433 4.433 0 01-3.102-1.418c-.821-.863-1.232-2.013-1.191-3.205.082-2.465 2.198-4.396 4.622-4.293 1.191.041 2.3.555 3.102 1.417a4.425 4.425 0 011.191 3.205c-.103 2.403-2.075 4.293-4.457 4.293zm0-6.739a2.286 2.286 0 00-2.28 2.198c-.02.617.185 1.192.617 1.644.41.452.986.698 1.581.719 1.253.04 2.322-.945 2.363-2.198.04-1.253-.945-2.322-2.198-2.363h-.082z" fill="#232322"/><path d="M49.279 7.833a3.369 3.369 0 100-6.738 3.369 3.369 0 000 6.738z" fill="#151514"/><path d="M49.279 8.92h-.165a4.433 4.433 0 01-3.101-1.418c-.822-.863-1.233-2.013-1.192-3.205.082-2.465 2.198-4.396 4.622-4.293 1.192.041 2.3.555 3.102 1.417a4.425 4.425 0 011.191 3.205c-.102 2.403-2.074 4.293-4.457 4.293zm0-6.739c-1.212 0-2.24.966-2.28 2.198-.02.617.184 1.192.616 1.644.41.452.986.698 1.582.719 1.253.04 2.32-.945 2.362-2.198.041-1.253-.945-2.322-2.198-2.363h-.082z" fill="#232322"/><path d="M49.279 29.265a3.369 3.369 0 100-6.738 3.369 3.369 0 000 6.738z" fill="#151514"/><path d="M49.279 30.354h-.165a4.433 4.433 0 01-3.101-1.418c-.822-.862-1.233-2.013-1.192-3.204.082-2.465 2.198-4.396 4.622-4.293 1.192.04 2.3.554 3.102 1.417a4.425 4.425 0 011.191 3.204c-.102 2.404-2.074 4.294-4.457 4.294zm0-6.738c-1.212 0-2.24.965-2.28 2.198-.02.616.184 1.191.616 1.643.41.452.986.699 1.582.72a2.292 2.292 0 002.362-2.199c.041-1.253-.945-2.321-2.198-2.362h-.082z" fill="#232322"/><path d="M4.46 29.265a3.369 3.369 0 100-6.738 3.369 3.369 0 000 6.738z" fill="#151514"/><path d="M4.46 30.354h-.164a4.433 4.433 0 01-3.102-1.418c-.821-.862-1.232-2.013-1.191-3.204.082-2.465 2.198-4.396 4.622-4.293a4.43 4.43 0 013.102 1.417 4.425 4.425 0 011.191 3.204c-.103 2.404-2.075 4.294-4.458 4.294zm0-6.738a2.285 2.285 0 00-2.28 2.198c-.02.616.185 1.191.617 1.643.41.452.986.699 1.581.72 1.253.04 2.322-.946 2.363-2.199.04-1.253-.945-2.321-2.198-2.362H4.46z" fill="#65A85A"/><path d="M49.263 50.681a3.369 3.369 0 100-6.738 3.369 3.369 0 000 6.738z" fill="#151514"/><path d="M49.263 51.77h-.164a4.443 4.443 0 01-4.294-4.622 4.457 4.457 0 014.622-4.293c1.192.04 2.3.554 3.102 1.417a4.425 4.425 0 011.191 3.204c-.102 2.404-2.074 4.294-4.457 4.294zm-.02-6.738a2.24 2.24 0 00-1.562.616c-.452.41-.698.986-.719 1.582-.041 1.253.945 2.321 2.198 2.362a2.265 2.265 0 002.363-2.198 2.226 2.226 0 00-.617-1.643 2.233 2.233 0 00-1.581-.72h-.083z" fill="#65A85A"/></svg>