<svg width="43" height="26" fill="none" xmlns="http://www.w3.org/2000/svg"><path d="M41.578 2.219c-.156.781-.781 2.057-1.875 3.828a117.516 117.516 0 01-2.89 4.687c-.886 1.303-1.355 1.98-1.407 2.032-.312.468-.468.807-.468 1.015 0 .209.156.573.468 1.094l.469.547 1.25 1.25c.469.469.99 1.015 1.563 1.64a25.09 25.09 0 011.562 1.875c.52.573.964 1.172 1.328 1.797.417.625.703 1.146.86 1.563.364 1.302-.157 1.953-1.563 1.953h-4.61c-.364 0-.676-.052-.937-.156-.26-.104-.547-.287-.86-.547a6.69 6.69 0 01-.859-.86 44.44 44.44 0 00-1.172-1.328 47.618 47.618 0 00-1.562-1.64c-2.083-1.98-3.62-2.969-4.61-2.969-.624 0-.989.182-1.093.547-.104.364-.156 1.406-.156 3.125.052.833.078 1.51.078 2.031 0 .625-.209 1.094-.625 1.406-.417.26-1.328.391-2.735.391-2.448 0-4.922-.73-7.422-2.188-2.5-1.458-4.687-3.541-6.562-6.25-1.77-2.395-3.255-4.765-4.453-7.109C2.15 7.557 1.396 5.734 1.03 4.484.667 3.234.484 2.35.484 1.828.484.943 1.005.5 2.047.5h4.61c.572 0 .989.13 1.25.39.312.261.572.73.78 1.407 1.094 3.177 2.422 6.015 3.985 8.515 1.614 2.5 2.838 3.75 3.672 3.75.312 0 .52-.104.625-.312.156-.26.234-.73.234-1.406V6.047c-.052-.73-.182-1.354-.39-1.875-.209-.521-.417-.886-.625-1.094l-.625-.781c-.157-.26-.235-.495-.235-.703 0-.209.052-.39.156-.547.104-.156.235-.287.391-.39.208-.105.417-.157.625-.157h7.266c.833 0 1.25.573 1.25 1.719v9.062c0 .886.234 1.328.703 1.328.52 0 1.25-.468 2.187-1.406.99-1.094 1.953-2.422 2.89-3.984.938-1.563 1.642-2.865 2.11-3.907l.703-1.484C33.974.943 34.625.5 35.562.5h4.61c1.25 0 1.719.573 1.406 1.719z" fill="#fff"/></svg>