<svg width="43" height="30" fill="none" xmlns="http://www.w3.org/2000/svg"><path d="M41.969 4.688c.156.625.286 1.406.39 2.343.157.938.26 1.875.313 2.813.052.885.078 1.719.078 2.5.052.781.078 1.432.078 1.953V15c0 4.688-.286 8.151-.86 10.39a5.45 5.45 0 01-1.406 2.344 5.415 5.415 0 01-2.421 1.407c-.99.26-2.865.468-5.625.625-2.76.104-5.287.182-7.578.234H21.5c-8.906 0-14.453-.287-16.64-.86-2.032-.572-3.308-1.822-3.829-3.75-.26-.989-.468-2.343-.625-4.062a299.67 299.67 0 01-.234-4.453V15c0-4.635.286-8.073.86-10.313a5.41 5.41 0 011.405-2.421A5.415 5.415 0 014.86.859C5.85.6 7.724.417 10.484.313c2.76-.157 5.287-.26 7.579-.313H21.5c8.906 0 14.453.286 16.64.86a5.41 5.41 0 012.422 1.406 5.416 5.416 0 011.407 2.421zM17.125 21.405L28.297 15 17.125 8.672v12.734z" fill="#fff"/></svg>