<svg width="205" height="46" fill="none" xmlns="http://www.w3.org/2000/svg"><path d="M80.32 16.053l-11.14 16.65h11.05v2.86H64v-.41l11.31-16.73H64.62v-2.82h15.7v.45zm39.403-.45v14.62c0 2.94.29 3.35 2.36 3.15l.04 2.24c-3.11.54-5.59.33-5.38-3.15-1.53 2.77-4.1 3.44-7.12 3.44-5.34 0-7.5-3.73-7.5-8.65v-11.65h3.27v11.64c-.04 3.64 1.86 6 5.18 6 3.48 0 5.92-2.32 5.92-6.05v-11.6h3.23v.01zm22.4 19.96v-11.84c0-3.6-2.32-5.84-5.59-5.84-3.4 0-5.96 2.36-5.96 5.71v11.97h-3.23v-14.25c0-2.69-.21-3.4-2.32-3.19l-.04-2.57c2.32-.33 5.38-.83 5.38 3.02 1.78-2.69 4.22-3.4 7.04-3.4 5.26 0 7.99 3.64 7.99 8.53v11.84h-3.27v.02zm13.09-26.55c0 2.77-4.1 2.77-4.1 0 0-2.73 4.1-2.73 4.1 0zm-.45 26.55h-3.23v-19.8h3.23v19.8zm5.09-10.02c0-13.87 21.04-13.87 21.04 0 0 13.79-21.04 13.87-21.04 0zm17.81 0c0-10.15-14.54-10.15-14.54 0 0 10.19 14.54 10.19 14.54 0zm23.69 10.02v-11.84c0-3.6-2.32-5.84-5.59-5.84-3.4 0-5.96 2.36-5.96 5.71v11.97h-3.23v-14.25c0-2.69-.21-3.4-2.32-3.19l-.04-2.57c2.32-.33 5.38-.83 5.38 3.02 1.78-2.69 4.22-3.4 7.04-3.4 5.26 0 7.99 3.64 7.99 8.53v11.84h-3.27v.02zm-197.6 6.75c-.31 0-.6-.15-.77-.43a.914.914 0 01.15-1.16l14.36-13.35-8.5-9.14a.887.887 0 01-.22-.82c.07-.29.27-.54.55-.65l34.59-13.87a.916.916 0 01.96 1.52l-14.35 13.35 8.5 9.14c.21.22.29.53.22.82-.07.29-.27.54-.55.65l-34.6 13.87c-.11.05-.23.07-.34.07zm7.49-24.35l8.21 8.83c.17.18.25.41.24.66a.93.93 0 01-.29.64l-11.42 10.62 28.79-11.54-8.21-8.83a.888.888 0 01-.24-.66.93.93 0 01.29-.64l11.41-10.62-28.78 11.54z" fill="#fff"/><path d="M38.343 28.443l-19.56-.1c-.38 0-.71-.23-.85-.58a.894.894 0 01.23-1l8.75-8.13-17.25-.1.01-1.83 19.56.1c.38 0 .71.23.85.58s.05.75-.23 1l-8.75 8.13 17.25.09-.01 1.84z" fill="#D07F2A"/><path d="M44.253 6.573a2.83 2.83 0 100-5.66 2.83 2.83 0 000 5.66z" fill="#151514"/><path d="M44.263 7.493h-.14c-2.07-.08-3.69-1.82-3.61-3.88.04-1 .46-1.93 1.19-2.61.73-.68 1.71-1.04 2.69-1 1 .04 1.93.46 2.61 1.19.68.73 1.04 1.69 1 2.69-.04 1-.46 1.93-1.19 2.61-.7.64-1.6 1-2.55 1zm-1.92-3.82c-.04 1.06.79 1.95 1.85 1.99 1.09.07 1.95-.79 1.99-1.85a1.913 1.913 0 00-1.85-1.99c-.51-.03-1 .16-1.38.51-.38.35-.6.83-.61 1.34zm48.41 24.82h-.14c-2.07-.08-3.69-1.82-3.61-3.88.04-1 .46-1.93 1.19-2.61.73-.68 1.71-1.04 2.69-1 1 .04 1.93.46 2.61 1.19.68.73 1.04 1.69 1 2.69-.04 1-.46 1.93-1.19 2.61-.7.64-1.6 1-2.55 1zm-1.92-3.82c-.04 1.06.79 1.95 1.85 1.99 1.09.07 1.95-.79 1.99-1.85a1.913 1.913 0 00-1.85-1.99c-.51-.03-1 .16-1.38.51-.38.35-.6.83-.61 1.34z" fill="#fff"/><path d="M18.783 30.253a2.83 2.83 0 100-5.66 2.83 2.83 0 000 5.66z" fill="#151514"/><path d="M18.783 31.173h-.14c-2.07-.08-3.69-1.82-3.61-3.88.04-1 .46-1.93 1.19-2.61.73-.68 1.72-1.04 2.69-1 1 .04 1.93.46 2.61 1.19.68.73 1.04 1.69 1 2.69a3.748 3.748 0 01-3.74 3.61zm0-5.67c-.49 0-.95.18-1.3.51-.38.35-.59.82-.61 1.33-.04 1.06.79 1.95 1.85 1.99h.07c1.03 0 1.88-.82 1.92-1.85a1.913 1.913 0 00-1.85-1.99c-.03.01-.06.01-.08.01z" fill="#D07F2A"/><path d="M29.223 20.543a2.83 2.83 0 100-5.66 2.83 2.83 0 000 5.66z" fill="#151514"/><path d="M29.223 21.463h-.14c-2.07-.08-3.69-1.82-3.61-3.88.04-1 .46-1.93 1.19-2.61.73-.68 1.71-1.03 2.69-1 1 .04 1.93.46 2.61 1.19.68.73 1.04 1.69 1 2.69a3.741 3.741 0 01-3.74 3.61zm0-5.67c-.49 0-.95.18-1.3.51-.38.35-.59.82-.61 1.33-.04 1.06.79 1.95 1.85 1.99 1.09.05 1.95-.79 1.99-1.85a1.913 1.913 0 00-1.85-1.99c-.03.01-.06.01-.08.01z" fill="#D07F2A"/><path d="M3.753 44.223a2.83 2.83 0 100-5.66 2.83 2.83 0 000 5.66z" fill="#151514"/><path d="M3.753 45.143h-.14c-1-.04-1.93-.46-2.61-1.19a3.714 3.714 0 01-1-2.69c.08-2.07 1.83-3.67 3.88-3.61 2.07.08 3.69 1.82 3.61 3.88a3.748 3.748 0 01-3.74 3.61zm0-5.67c-1.03 0-1.88.82-1.92 1.85a1.913 1.913 0 001.84 1.99c1.05.06 1.95-.79 1.99-1.85a1.913 1.913 0 00-1.85-1.99h-.06z" fill="#fff"/><path d="M38.343 30.353a2.83 2.83 0 100-5.66 2.83 2.83 0 000 5.66z" fill="#151514"/><path d="M38.343 31.273h-.14c-2.07-.08-3.69-1.82-3.61-3.88.04-1 .46-1.93 1.19-2.61.73-.68 1.72-1.04 2.69-1 1 .04 1.93.46 2.61 1.19.68.73 1.04 1.69 1 2.69-.06 2.02-1.73 3.61-3.74 3.61zm-.07-1.83c1.05.05 1.95-.79 1.99-1.85a1.913 1.913 0 00-1.84-1.99c-.53-.02-1 .16-1.38.51a1.923 1.923 0 001.23 3.33z" fill="#D07F2A"/><path d="M9.663 20.443a2.83 2.83 0 100-5.66 2.83 2.83 0 000 5.66z" fill="#151514"/><path d="M9.663 21.363h-.14c-1-.04-1.93-.46-2.61-1.19a3.714 3.714 0 01-1-2.69 3.77 3.77 0 013.88-3.61c1 .04 1.93.46 2.61 1.19.68.73 1.04 1.69 1 2.69a3.74 3.74 0 01-3.74 3.61zm-.07-1.83a1.922 1.922 0 001.48-3.23c-.35-.38-.82-.59-1.33-.61-1.03-.02-1.95.79-1.99 1.85-.05 1.06.78 1.95 1.84 1.99z" fill="#D07F2A"/><circle cx="90.5" cy="24.5" r="2.5" fill="#fff"/></svg>