<svg width="151" height="47" fill="none" xmlns="http://www.w3.org/2000/svg"><path d="M.544 36.728h1.942a30.535 30.535 0 001.476-.233c1.399-.466 1.787-1.087 2.098-2.486 1.631-7.536 3.03-15.15 4.661-22.763.777-3.419 1.321-6.06 2.02-7.925.389-1.01.855-1.787 1.321-2.33 1.165-1.321 3.03-1.321 4.195 0 1.243 1.32 1.943 3.884 2.72 7.07 2.175 10.332 4.35 20.743 6.526 31.153.233 1.01.466 1.865.699 2.642.31.932.466 1.32.932 1.32.078 0 .155-.077.233-.155.31-.31.7-1.476 1.088-2.641.233-.7.388-1.399.544-1.71.932-2.02 3.107-1.942 5.127-1.942H137.28l-.543 2.72H37.059c-2.953 0-3.186.155-4.118 2.952-.389 1.01-.777 2.097-1.476 2.952-.544.622-1.243 1.165-2.331 1.165-3.34-.077-4.04-4.273-4.584-6.681a3977.911 3977.911 0 01-6.137-29.523c-.389-1.476-.7-2.874-1.088-4.273-.388-1.553-.7-2.33-1.243-2.33-.544 0-.855.699-1.165 2.33L9.245 32.844c-.31 1.631-.621 3.34-1.709 4.739-1.165 1.32-2.875 2.253-5.904 2.175H0l.544-3.03zm138.755 4.273l.933-5.593 10.643 2.719L139.299 41z" fill="#006CB5"/></svg>